# xmcd
#
# Track frame offsets:
#	150
#	35516
#	65666
#	118378
#	142929
#	176430
#
# Disc length: 2816 seconds
#
# Revision: 3
# Processed by: cddbd v1.5.2PL0 Copyright (c) Steve Scherf et al.
# Submitted via: EasyCDDAExtractor 16.0.6.1
#
DISCID=540afe06
DTITLE=Eric Clapton - R-607 E.C. Was Here
DYEAR=1900
DGENRE=blues
TTITLE0=Have You Ever Loved A Woman
TTITLE1=Presence Of The Lord
TTITLE2=Drifting Blues
TTITLE3=Can't Find My Way Home
TTITLE4=Rambling On My Mind
TTITLE5=Further On Up The Road
EXTD=
EXTT0=
EXTT1=
EXTT2=
EXTT3=
EXTT4=
EXTT5=
PLAYORDER=
